<svg width="0" height="0" class="hidden">
  <symbol fill="none" xmlns="http://www.w3.org/2000/svg" viewBox="0 0 17 17" id="cart">
    <path d="M4.103 4.103L3.328 1H1m3.103 3.103H16l-1.694 7.199a2.069 2.069 0 01-2.014 1.595H8.024c-.94 0-1.76-.633-2-1.54l-1.92-7.254z" stroke="#FFE001" stroke-width="1.5" stroke-linecap="round" stroke-linejoin="round"></path>
    <path d="M6.431 16.776a1.035 1.035 0 100-2.07 1.035 1.035 0 000 2.07zm7.241 0a1.034 1.034 0 100-2.07 1.034 1.034 0 000 2.07z" fill="#FFE001"></path>
  </symbol>
  <symbol fill="none" xmlns="http://www.w3.org/2000/svg" viewBox="0 0 8 5" id="dropdown">
    <path d="M6.822.205a.631.631 0 01.928 0l.057.061a.725.725 0 01-.001.985L4.465 4.795a.63.63 0 01-.931 0L.193 1.25A.728.728 0 01.19.266L.25.205a.628.628 0 01.928 0L4 3.197 6.822.205z" fill="#fff"></path>
  </symbol>
  <symbol fill="none" xmlns="http://www.w3.org/2000/svg" viewBox="0 0 10 12" id="more">
    <path d="M7.448 5.352L3.4 1.417 4.343.5 10 6l-5.657 5.5-.943-.916 4.047-3.935H0V5.352h7.448z" fill="#FFE001"></path>
  </symbol>
</svg>